<?xml version="1.0" encoding="UTF-8"?>
<svg version="1.1" xmlns="http://www.w3.org/2000/svg" width="500" height="500">
<path d="M0 0 C165 0 330 0 500 0 C500 165 500 330 500 500 C335 500 170 500 0 500 C0 335 0 170 0 0 Z " fill="#FEFEFE" transform="translate(0,0)"/>
<path d="M0 0 C2.375 1.0625 2.375 1.0625 4 2 C4 2.66 4 3.32 4 4 C4.71929687 4.268125 5.43859375 4.53625 6.1796875 4.8125 C9.01008058 6.00424446 11.50717835 7.39888584 14.125 9 C15.39730469 9.7734375 15.39730469 9.7734375 16.6953125 10.5625 C18.4830896 11.67758809 20.24684645 12.83123097 22 14 C25.4153925 13.65776231 27.68232276 12.01547658 30.4375 10.0625 C38.08655791 4.64829727 44.74222935 4.17305317 54 5 C63.30018969 7.38025963 68.59292754 11.97321142 73.765625 19.87890625 C77.22203559 25.8182447 76.90092658 33.33513433 76 40 C73.51363279 48.00958882 69.14297079 54.50938234 62 59 C54.89776323 62.62945188 46.71433588 63.45589784 39.078125 61.09765625 C36.6717338 60.14257726 34.32809649 59.13122259 32 58 C32 57.34 32 56.68 32 56 C31.29875 55.835 30.5975 55.67 29.875 55.5 C24.45571038 52.67254455 21.6878195 47.87587137 19.625 42.25 C18.21686359 35.05285835 18.41304725 27.14128737 20 20 C17.03 18.35 14.06 16.7 11 15 C10.70564214 21.96928739 10.45528483 28.93836864 10.24316406 35.91064453 C10.16531746 38.27531542 10.07607874 40.63964292 9.97460938 43.00341797 C9.359321 57.54268233 9.63630299 68.7885501 16 82 C17.32 85.3 18.64 88.6 20 92 C23.3 84.08 26.6 76.16 30 68 C32.74773758 69.37386879 32.87247008 70.77340261 33.9453125 73.62109375 C34.47705078 75.02391602 34.47705078 75.02391602 35.01953125 76.45507812 C35.38433594 77.43927734 35.74914062 78.42347656 36.125 79.4375 C36.49753906 80.41783203 36.87007813 81.39816406 37.25390625 82.40820312 C40 89.71603136 40 89.71603136 40 92 C40.66 92 41.32 92 42 92 C42.12689209 91.27530518 42.25378418 90.55061035 42.38452148 89.80395508 C42.98109622 87.08612055 43.80140772 84.71082227 44.84765625 82.13671875 C45.38422852 80.80737305 45.38422852 80.80737305 45.93164062 79.45117188 C46.30482422 78.53916016 46.67800781 77.62714844 47.0625 76.6875 C47.43955078 75.75615234 47.81660156 74.82480469 48.20507812 73.86523438 C49.13281967 71.57523942 50.06588811 69.28740382 51 67 C54.96 67 58.92 67 63 67 C60.86753388 73.63335588 58.42827279 80.06522616 55.76953125 86.50390625 C55.1766053 87.94974342 55.1766053 87.94974342 54.57170105 89.42478943 C53.32139698 92.47183637 52.06701968 95.51718662 50.8125 98.5625 C49.9587135 100.6411648 49.10519523 102.7199398 48.25195312 104.79882812 C46.17106772 109.86716336 44.08684485 114.93411582 42 120 C39 119 39 119 37.92504883 117.05053711 C37.60560303 116.2178833 37.28615723 115.38522949 36.95703125 114.52734375 C36.43012695 113.17866211 36.43012695 113.17866211 35.89257812 111.80273438 C35.53615234 110.85720703 35.17972656 109.91167969 34.8125 108.9375 C34.44447266 107.98810547 34.07644531 107.03871094 33.69726562 106.06054688 C32.7880365 103.71072094 31.88950026 101.35734961 31 99 C29.37699321 101.43451018 28.40221467 103.29838958 27.37890625 105.9765625 C26.93514648 107.10578125 26.93514648 107.10578125 26.48242188 108.2578125 C25.86701099 109.84141759 25.25766895 111.42739398 24.65429688 113.015625 C24.35716797 113.76585937 24.06003906 114.51609375 23.75390625 115.2890625 C23.48908447 115.97693848 23.2242627 116.66481445 22.95141602 117.37353516 C22 119 22 119 19 120 C12.73 104.49 6.46 88.98 0 73 C-2.31 74.32 -4.62 75.64 -7 77 C-6.67 78.051875 -6.34 79.10375 -6 80.1875 C-3.64880676 89.81376216 -4.05848755 99.31028152 -9 108 C-13.59934843 114.89239534 -19.87025494 119.12390499 -28 121 C-36.14998989 121.86340182 -42.53632939 120.23377605 -50 117 C-50 116.34 -50 115.68 -50 115 C-50.59554687 114.73445313 -51.19109375 114.46890625 -51.8046875 114.1953125 C-56.63939967 111.56288915 -59.4536939 107.44026153 -61.375 102.375 C-63.00804718 93.50497531 -63.14146403 85.16893776 -58.546875 77.21875 C-54.20600059 70.9924453 -49.17196613 66.65445183 -42 64 C-41.34 64 -40.68 64 -40 64 C-40.495 54.1 -40.495 54.1 -41 44 C-47.42766432 41.81685258 -47.42766432 41.81685258 -52 42 C-52.33 40.68 -52.66 39.36 -53 38 C-50.89674758 36.37380483 -48.79244271 34.74900468 -46.6875 33.125 C-46.09259766 32.66480469 -45.49769531 32.20460937 -44.88476562 31.73046875 C-37.4517663 26 -37.4517663 26 -34 26 C-34.54087318 29.78611227 -36.11722332 31.55400767 -39 34 C-39.66 34 -40.32 34 -41 34 C-41 35.32 -41 36.64 -41 38 C-34.68735329 37.7277293 -30.92854507 34.39684457 -26.125 30.6875 C-25.30016113 30.06319092 -24.47532227 29.43888184 -23.62548828 28.7956543 C-21.92116357 27.50540503 -20.21984121 26.21118068 -18.52148438 24.91308594 C-16.11108927 23.08428501 -13.6793748 21.28998654 -11.234375 19.5078125 C-10.49815918 18.96809814 -9.76194336 18.42838379 -9.00341797 17.87231445 C-7.60973137 16.85094904 -6.21302289 15.83369132 -4.81298828 14.82104492 C-1.02884946 12.0976486 -1.02884946 12.0976486 1 8 C-1.73185596 6.69940936 -1.73185596 6.69940936 -5 6 C-7.77622596 7.25591174 -9.74797158 8.78615771 -12.0625 10.75 C-14 12 -14 12 -16.25 11.6875 C-16.8275 11.460625 -17.405 11.23375 -18 11 C-17.6880222 7.92875193 -16.99187205 6.99228745 -14.70703125 4.82421875 C-13.75183594 4.11910156 -12.79664063 3.41398438 -11.8125 2.6875 C-10.87019531 1.96949219 -9.92789063 1.25148437 -8.95703125 0.51171875 C-5.38434183 -1.31474203 -3.79780052 -1.08660772 0 0 Z " fill="#FEC735" transform="translate(236,182)"/>
<path d="M0 0 C4.54695713 3.38457711 8.28760126 7.56061577 10 13 C10.80025177 20.64240443 10.91174735 27.76112314 6 34 C1.29101925 38.95475219 -3.0774655 42.56806918 -10.05078125 43.3359375 C-18.86887071 43.44154336 -23.97194812 42.22244151 -30.8125 36.75 C-36.90655021 29.08890831 -36.35671715 21.40676339 -36 12 C-35.01 11.67 -34.02 11.34 -33 11 C-30.75939052 12.17055588 -28.72729689 13.36740835 -26.625 14.75 C-25.49228462 15.47411029 -24.35947347 16.19807077 -23.2265625 16.921875 C-22.16179687 17.60765625 -21.09703125 18.2934375 -20 19 C-16.96549197 20.88747256 -14.52971308 22.34634943 -11 23 C-11.96627033 19.41544879 -12.81904741 18.1325669 -15.86328125 15.90234375 C-17.00152344 15.25394531 -18.13976562 14.60554688 -19.3125 13.9375 C-23.49038114 11.53176457 -27.30915295 9.10917509 -31 6 C-29.9033819 2.7101457 -29.36014615 2.25613427 -26.625 0.375 C-26.01914062 -0.05039063 -25.41328125 -0.47578125 -24.7890625 -0.9140625 C-17.5971344 -5.27946864 -7.2347946 -3.44745246 0 0 Z " fill="#FEFDFA" transform="translate(297,195)"/>
<path d="M0 0 C3.96 0 7.92 0 12 0 C15.3 8.25 18.6 16.5 22 25 C25.3 17.08 28.6 9.16 32 1 C34.74773758 2.37386879 34.87247008 3.77340261 35.9453125 6.62109375 C36.29980469 7.55630859 36.65429688 8.49152344 37.01953125 9.45507812 C37.38433594 10.43927734 37.74914062 11.42347656 38.125 12.4375 C38.49753906 13.41783203 38.87007813 14.39816406 39.25390625 15.40820312 C42 22.71603136 42 22.71603136 42 25 C42.66 25 43.32 25 44 25 C44.12689209 24.27530518 44.25378418 23.55061035 44.38452148 22.80395508 C44.98109622 20.08612055 45.80140772 17.71082227 46.84765625 15.13671875 C47.20537109 14.25048828 47.56308594 13.36425781 47.93164062 12.45117188 C48.30482422 11.53916016 48.67800781 10.62714844 49.0625 9.6875 C49.43955078 8.75615234 49.81660156 7.82480469 50.20507812 6.86523438 C51.13281967 4.57523942 52.06588811 2.28740382 53 0 C56.96 0 60.92 0 65 0 C62.86753388 6.63335588 60.42827279 13.06522616 57.76953125 19.50390625 C57.1766053 20.94974342 57.1766053 20.94974342 56.57170105 22.42478943 C55.32139698 25.47183637 54.06701968 28.51718662 52.8125 31.5625 C51.9587135 33.6411648 51.10519523 35.7199398 50.25195312 37.79882812 C48.17106772 42.86716336 46.08684485 47.93411582 44 53 C41 52 41 52 39.92504883 50.05053711 C39.60560303 49.2178833 39.28615723 48.38522949 38.95703125 47.52734375 C38.60576172 46.62822266 38.25449219 45.72910156 37.89257812 44.80273438 C37.53615234 43.85720703 37.17972656 42.91167969 36.8125 41.9375 C36.44447266 40.98810547 36.07644531 40.03871094 35.69726562 39.06054688 C34.7880365 36.71072094 33.88950026 34.35734961 33 32 C31.37699321 34.43451018 30.40221467 36.29838958 29.37890625 38.9765625 C29.08306641 39.729375 28.78722656 40.4821875 28.48242188 41.2578125 C27.86701099 42.84141759 27.25766895 44.42739398 26.65429688 46.015625 C26.35716797 46.76585937 26.06003906 47.51609375 25.75390625 48.2890625 C25.48908447 48.97693848 25.2242627 49.66481445 24.95141602 50.37353516 C24 52 24 52 21 53 C18.3281367 46.41739047 15.65916781 39.83361283 12.9921875 33.24902344 C12.08497307 31.01014783 11.17710162 28.77153833 10.26855469 26.53320312 C8.96115174 23.31189959 7.65613111 20.08963975 6.3515625 16.8671875 C5.94628326 15.87008759 5.54100403 14.87298767 5.1234436 13.84567261 C3.2730279 9.2687154 1.47886209 4.71430685 0 0 Z " fill="#2F353C" transform="translate(234,249)"/>
<path d="M0 0 C0.66 8.58 1.32 17.16 2 26 C7.67586667 22.79594065 7.67586667 22.79594065 12.96484375 19.203125 C13.94614258 18.47802734 13.94614258 18.47802734 14.94726562 17.73828125 C15.60404297 17.24714844 16.26082031 16.75601562 16.9375 16.25 C17.62134766 15.74339844 18.30519531 15.23679687 19.00976562 14.71484375 C20.67569833 13.47995657 22.3382122 12.24045936 24 11 C27.24896987 13.96645075 27.90842971 16.13008229 28.375 20.5625 C28.24160242 27.17174385 25.22593835 32.62592564 20.76953125 37.37890625 C14.99306996 42.64651124 11.60468222 44.15602751 3.6875 44.25 C2.39199219 44.27578125 1.09648437 44.3015625 -0.23828125 44.328125 C-5.04566127 43.90878967 -8.27193672 42.59144289 -11.828125 39.31640625 C-12.29734375 38.73761719 -12.7665625 38.15882813 -13.25 37.5625 C-13.96929687 36.69818359 -13.96929687 36.69818359 -14.703125 35.81640625 C-19.09646868 29.6630785 -18.76977308 23.36551297 -18 16 C-15.83850062 9.03293456 -11.19434888 4.62848888 -5 1 C-2 0 -2 0 0 0 Z " fill="#FEFDFA" transform="translate(198,252)"/>
<path d="M0 0 C0.125 6.625 0.125 6.625 -1 10 C-2.08539063 9.95359375 -3.17078125 9.9071875 -4.2890625 9.859375 C-5.73434731 9.82183513 -7.17966211 9.78543736 -8.625 9.75 C-9.69427734 9.69972656 -9.69427734 9.69972656 -10.78515625 9.6484375 C-15.99840933 9.55278148 -18.86320576 10.56097828 -23 14 C-26.07650262 18.51220385 -26.82720363 22.67620227 -26 28 C-24.60075055 31.30101131 -24.60075055 31.30101131 -23 34 C-23 34.66 -23 35.32 -23 36 C-18.52456422 38.48867691 -14.00565267 39.07790609 -9 40 C-9 34.72 -9 29.44 -9 24 C-5.37 24 -1.74 24 2 24 C2 31.59 2 39.18 2 47 C-6.18066264 50.50599827 -13.23142073 51.66802292 -21.91796875 49.15625 C-29.43208025 45.79138313 -32.93181093 40.65380069 -36.875 33.6875 C-38.96621362 26.83296648 -39.02975602 19.53944879 -36.09375 12.90625 C-28.641874 -0.08130532 -14.22787645 -6.54850506 0 0 Z " fill="#30373E" transform="translate(165,251)"/>
<path d="M0 0 C8.58 0 17.16 0 26 0 C26 3.63 26 7.26 26 11 C20.72 11 15.44 11 10 11 C10 14.3 10 17.6 10 21 C14.62 21 19.24 21 24 21 C24 24.3 24 27.6 24 31 C19.38 31 14.76 31 10 31 C10 34.63 10 38.26 10 42 C15.61 42 21.22 42 27 42 C27 45.3 27 48.6 27 52 C18.09 52 9.18 52 0 52 C0 34.84 0 17.68 0 0 Z " fill="#2D343C" transform="translate(305,249)"/>
<path d="M0 0 C10.23 0 20.46 0 31 0 C29.02196251 5.93411246 27.03125815 11.46884413 24.42578125 17.09765625 C24.09708542 17.8173912 23.76838959 18.53712616 23.42973328 19.27867126 C22.39494381 21.54194121 21.35385519 23.80224472 20.3125 26.0625 C19.60309389 27.611135 18.89410588 29.15996161 18.18554688 30.70898438 C16.46261063 34.47526256 14.73115621 38.23745015 13 42 C19.27 42 25.54 42 32 42 C32 45.3 32 48.6 32 52 C20.78 52 9.56 52 -2 52 C-1.07836644 47.39183219 0.35764072 43.64438753 2.30859375 39.43359375 C2.63537613 38.7176857 2.96215851 38.00177765 3.29884338 37.26417542 C4.34012668 34.98631873 5.38877742 32.71193968 6.4375 30.4375 C7.13914133 28.90451166 7.84031812 27.3713106 8.54101562 25.83789062 C13.52936834 14.94126333 13.52936834 14.94126333 16 10 C10.72 10 5.44 10 0 10 C0 6.7 0 3.4 0 0 Z " fill="#2E353D" transform="translate(340,249)"/>
<path d="M0 0 C0.14236739 13.69890638 -0.26908428 27.32060126 -1 41 C-1.66 41 -2.32 41 -3 41 C-5 38 -5 38 -4.625 34.8125 C-4.41875 33.884375 -4.2125 32.95625 -4 32 C-5.32 32.66 -6.64 33.32 -8 34 C-6.80023567 37.08510827 -5.49997444 40.05047042 -4 43 C-15.06900243 37.79930893 -26.09299958 32.53356791 -37 27 C-37 26.34 -37 25.68 -37 25 C-35.56982422 23.73828125 -35.56982422 23.73828125 -33.5546875 22.3125 C-32.8136377 21.78309814 -32.07258789 21.25369629 -31.30908203 20.70825195 C-30.50583496 20.14452881 -29.70258789 19.58080566 -28.875 19 C-28.06272949 18.4227417 -27.25045898 17.8454834 -26.41357422 17.25073242 C-24.74816856 16.06752094 -23.08100103 14.88678555 -21.41210938 13.70849609 C-19.20817803 12.14745242 -17.01546356 10.5724543 -14.828125 8.98828125 C-14.19922363 8.53388672 -13.57032227 8.07949219 -12.92236328 7.61132812 C-11.75306651 6.76635953 -10.58471958 5.92007441 -9.41748047 5.07226562 C-2.35130463 0 -2.35130463 0 0 0 Z " fill="#FEFCF5" transform="translate(241,198)"/>
<path d="M0 0 C4.455734 0.8911468 7.55029474 2.03050392 11.61328125 3.94140625 C12.22769577 4.22853989 12.84211029 4.51567352 13.47514343 4.81150818 C15.42337328 5.72339838 17.367941 6.64281193 19.3125 7.5625 C20.63843666 8.18474626 21.96460626 8.80649639 23.29101562 9.42773438 C26.5300596 10.94609035 29.76586484 12.47121103 33 14 C33 18 33 18 31.42578125 19.73828125 C30.72839844 20.25777344 30.03101563 20.77726562 29.3125 21.3125 C28.62800781 21.84488281 27.94351563 22.37726563 27.23828125 22.92578125 C24.32148945 24.3256377 23.04642799 23.9840857 20 23 C18.39193336 22.25986337 16.8081372 21.46517202 15.25 20.625 C10.597158 18.21474401 6.00616879 16.5341485 1 15 C0.67 10.05 0.34 5.1 0 0 Z " fill="#FEFBF4" transform="translate(201,230)"/>
<path d="M0 0 C5.88664939 0.99418967 10.33746235 2.17432808 15 6 C15 6.66 15 7.32 15 8 C12.88389996 9.63048598 10.77726231 11.14076138 8.5625 12.625 C7.64500977 13.25535156 7.64500977 13.25535156 6.70898438 13.8984375 C2.1523057 17 2.1523057 17 1 17 C-0.22517308 11.33357449 -0.09228867 5.76291482 0 0 Z " fill="#FEFCF5" transform="translate(204,251)"/>
<path d="M0 0 C3 0.4375 3 0.4375 4.67578125 1.609375 C6.53070911 4.17016036 6.29773624 6.00163994 6.1875 9.125 C6.16042969 10.11886719 6.13335937 11.11273438 6.10546875 12.13671875 C6.07066406 12.89597656 6.03585937 13.65523438 6 14.4375 C4.56344146 14.51881463 3.1255517 14.57683559 1.6875 14.625 C0.48673828 14.67720703 0.48673828 14.67720703 -0.73828125 14.73046875 C-3 14.4375 -3 14.4375 -4.76953125 13.140625 C-6.82047546 10.30185777 -6.35543593 7.81414134 -6 4.4375 C-4.4369108 1.05080673 -3.7186535 0.54230363 0 0 Z " fill="#F4F4F5" transform="translate(377,332.5625)"/>
<path d="M0 0 C2.31 0 4.62 0 7 0 C9 2 9 2 9.0625 4.3125 C9.041875 5.199375 9.02125 6.08625 9 7 C9.20625 7.886875 9.4125 8.77375 9.625 9.6875 C9.74875 10.450625 9.8725 11.21375 10 12 C8 14 8 14 6.0546875 14.1953125 C4.03645833 14.13020833 2.01822917 14.06510417 0 14 C0 9.38 0 4.76 0 0 Z " fill="#8E9197" transform="translate(129,333)"/>
<path d="M0 0 C7 0 7 0 10 2 C9.814375 3.2375 9.62875 4.475 9.4375 5.75 C9.05288777 8.76279577 8.9125406 11.10010827 10 14 C9.34 14 8.68 14 8 14 C7.34 12.02 6.68 10.04 6 8 C4.68 8 3.36 8 2 8 C2 9.98 2 11.96 2 14 C1.34 14 0.68 14 0 14 C0 9.38 0 4.76 0 0 Z " fill="#82878C" transform="translate(271,333)"/>
<path d="M0 0 C0.66 0 1.32 0 2 0 C3.65 4.62 5.3 9.24 7 14 C6.34 14 5.68 14 5 14 C4.67 13.34 4.34 12.68 4 12 C1.67843403 11.59270772 -0.6568787 11.25561323 -3 11 C-3 11.99 -3 12.98 -3 14 C-3.66 14 -4.32 14 -5 14 C-4.54857225 12.22739369 -4.08859477 10.4569632 -3.625 8.6875 C-3.36976563 7.70136719 -3.11453125 6.71523438 -2.8515625 5.69921875 C-2 3 -2 3 0 0 Z " fill="#B0B3B7" transform="translate(293,333)"/>
<path d="M0 0 C2.97 0 5.94 0 9 0 C9 0.66 9 1.32 9 2 C6.69 2 4.38 2 2 2 C2 3.32 2 4.64 2 6 C4.31 6 6.62 6 9 6 C9 6.66 9 7.32 9 8 C6.69 8 4.38 8 2 8 C2 9.32 2 10.64 2 12 C4.31 12 6.62 12 9 12 C9 12.66 9 13.32 9 14 C6.03 14 3.06 14 0 14 C0 9.38 0 4.76 0 0 Z " fill="#8C9095" transform="translate(227,333)"/>
<path d="M0 0 C3 0.5 3 0.5 4.875 2.5 C5.431875 3.49 5.431875 3.49 6 4.5 C3.03 4.17 0.06 3.84 -3 3.5 C-4.01540112 7.60223585 -4.01540112 7.60223585 -3 11.5 C-1.02 11.5 0.96 11.5 3 11.5 C3.33 10.51 3.66 9.52 4 8.5 C3.01 8.17 2.02 7.84 1 7.5 C2.65 7.5 4.3 7.5 6 7.5 C6 9.81 6 12.12 6 14.5 C4.56344146 14.58131463 3.1255517 14.63933559 1.6875 14.6875 C0.48673828 14.73970703 0.48673828 14.73970703 -0.73828125 14.79296875 C-3 14.5 -3 14.5 -4.76953125 13.203125 C-6.82047546 10.36435777 -6.35543593 7.87664134 -6 4.5 C-4.43993506 1.11985929 -3.69705317 0.61617553 0 0 Z " fill="#7E8288" transform="translate(377,332.5)"/>
<path d="M0 0 C3 1 3 1 4.16796875 2.84765625 C5.11197917 4.8984375 6.05598958 6.94921875 7 9 C7.33 6.03 7.66 3.06 8 0 C8.66 0 9.32 0 10 0 C10 4.62 10 9.24 10 14 C9.01 14 8.02 14 7 14 C5.35 10.7 3.7 7.4 2 4 C1.67 7.3 1.34 10.6 1 14 C0.67 14 0.34 14 0 14 C0 9.38 0 4.76 0 0 Z " fill="#80858A" transform="translate(353,333)"/>
<path d="M0 0 C0.66 1.32 1.32 2.64 2 4 C0.865625 3.814375 -0.26875 3.62875 -1.4375 3.4375 C-2.613125 3.293125 -3.78875 3.14875 -5 3 C-6.41577477 4.18424326 -6.41577477 4.18424326 -6.0625 7.5625 C-6.041875 8.696875 -6.02125 9.83125 -6 11 C-1.85906302 11.20970559 -1.85906302 11.20970559 2 10 C1.34 11.32 0.68 12.64 0 14 C-2.8125 14.25 -2.8125 14.25 -6 14 C-8.56002346 11.781313 -8.94923191 10.34812407 -9.4375 7 C-9 4 -9 4 -7.3125 1.625 C-4.61209763 -0.27258004 -3.22939919 -0.35882213 0 0 Z " fill="#82868C" transform="translate(202,333)"/>
<path d="M0 0 C0.33 0.99 0.66 1.98 1 3 C-0.299375 2.814375 -1.59875 2.62875 -2.9375 2.4375 C-5.08575543 2.1018371 -5.08575543 2.1018371 -7 2 C-8.35618499 3.12534105 -8.35618499 3.12534105 -8.0625 6.0625 C-8.041875 7.031875 -8.02125 8.00125 -8 9 C-5.69 9.66 -3.38 10.32 -1 11 C-1 10.34 -1 9.68 -1 9 C-0.34 9 0.32 9 1 9 C0.34 10.32 -0.32 11.64 -1 13 C-6.33333333 13.35555556 -6.33333333 13.35555556 -8.875 12 C-10.68755546 8.77767918 -10.53166222 5.60182435 -10 2 C-7.75198885 -2.36378636 -4.22539083 -0.87696791 0 0 Z " fill="#81858B" transform="translate(317,334)"/>
<path d="M0 0 C0.33 0.99 0.66 1.98 1 3 C-0.299375 2.814375 -1.59875 2.62875 -2.9375 2.4375 C-5.08575543 2.1018371 -5.08575543 2.1018371 -7 2 C-8.35618499 3.12534105 -8.35618499 3.12534105 -8.0625 6.0625 C-8.041875 7.031875 -8.02125 8.00125 -8 9 C-5.69 9.66 -3.38 10.32 -1 11 C-1 10.34 -1 9.68 -1 9 C-0.34 9 0.32 9 1 9 C0.34 10.32 -0.32 11.64 -1 13 C-6.33333333 13.35555556 -6.33333333 13.35555556 -8.875 12 C-10.68755546 8.77767918 -10.53166222 5.60182435 -10 2 C-7.75198885 -2.36378636 -4.22539083 -0.87696791 0 0 Z " fill="#81858B" transform="translate(167,334)"/>
<path d="M0 0 C3.63 0 7.26 0 11 0 C11 0.66 11 1.32 11 2 C9.68 2 8.36 2 7 2 C7 5.96 7 9.92 7 14 C6.34 14 5.68 14 5 14 C5 10.04 5 6.08 5 2 C3.35 2 1.7 2 0 2 C0 1.34 0 0.68 0 0 Z " fill="#8A8E94" transform="translate(253,333)"/>
<path d="M0 0 C0.33 0 0.66 0 1 0 C1.33 1.65 1.66 3.3 2 5 C3.65 3.35 5.3 1.7 7 0 C7.66 0.33 8.32 0.66 9 1 C8.319375 1.556875 7.63875 2.11375 6.9375 2.6875 C4.71975838 4.81682712 4.71975838 4.81682712 5.0625 7.5 C6.03648605 10.09729612 7.20799151 11.89633786 9 14 C6.37812506 12.95125002 5.20628639 12.35068687 3.75 9.875 C3.5025 9.25625 3.255 8.6375 3 8 C2.34 8 1.68 8 1 8 C1 9.98 1 11.96 1 14 C0.67 14 0.34 14 0 14 C0 9.38 0 4.76 0 0 Z " fill="#777B81" transform="translate(326,333)"/>
<path d="M0 0 C2.31 0 4.62 0 7 0 C7.66 0.66 8.32 1.32 9 2 C8.67 2.99 8.34 3.98 8 5 C7.67 4.34 7.34 3.68 7 3 C5.35 2.67 3.7 2.34 2 2 C1.67 5.63 1.34 9.26 1 13 C2.65 13 4.3 13 6 13 C6 13.33 6 13.66 6 14 C4.02 14 2.04 14 0 14 C0 9.38 0 4.76 0 0 Z " fill="#797D84" transform="translate(129,333)"/>
<path d="M0 0 C2.50037734 2.17424117 3.43628586 3.73045798 4 7 C3.34 7 2.68 7 2 7 C1.67 6.34 1.34 5.68 1 5 C-1.32156597 4.59270772 -3.6568787 4.25561323 -6 4 C-6 4.99 -6 5.98 -6 7 C-6.66 7 -7.32 7 -8 7 C-7.34 5.02 -6.68 3.04 -6 1 C-3.03 1.495 -3.03 1.495 0 2 C0 1.34 0 0.68 0 0 Z " fill="#82868C" transform="translate(296,340)"/>
<path d="M0 0 C3 1 3 1 4.203125 2.77734375 C4.54859375 3.49019531 4.8940625 4.20304687 5.25 4.9375 C5.78367187 6.00291016 5.78367187 6.00291016 6.328125 7.08984375 C6.54984375 7.72019531 6.7715625 8.35054688 7 9 C6.67 9.66 6.34 10.32 6 11 C4.02 7.535 4.02 7.535 2 4 C1.67 7.3 1.34 10.6 1 14 C0.67 14 0.34 14 0 14 C0 9.38 0 4.76 0 0 Z " fill="#73787E" transform="translate(353,333)"/>
<path d="M0 0 C1.65 0 3.3 0 5 0 C5.5625 1.9375 5.5625 1.9375 6 4 C5 5 5 5 2.4375 5.0625 C1.2309375 5.0315625 1.2309375 5.0315625 0 5 C0 3.35 0 1.7 0 0 Z " fill="#F3F4F4" transform="translate(273,335)"/>
<path d="M0 0 C0.99 0 1.98 0 3 0 C2.979375 0.94875 2.95875 1.8975 2.9375 2.875 C2.77448174 5.90666283 2.77448174 5.90666283 4 8 C2.125 7.8125 2.125 7.8125 0 7 C-1.25 4.4375 -1.25 4.4375 -2 2 C-1.34 1.34 -0.68 0.68 0 0 Z " fill="#FECE46" transform="translate(234,230)"/>
<path d="M0 0 C0.99 0.495 0.99 0.495 2 1 C2 1.66 2 2.32 2 3 C3.32 3.66 4.64 4.32 6 5 C5.67 7.31 5.34 9.62 5 12 C3.20931427 9.3139714 2.33944209 7.3373411 1.375 4.3125 C1.11460937 3.50425781 0.85421875 2.69601563 0.5859375 1.86328125 C0.39257812 1.24839844 0.19921875 0.63351563 0 0 Z " fill="#E8C151" transform="translate(246,250)"/>
<path d="M0 0 C1.98 0 3.96 0 6 0 C6 1.32 6 2.64 6 4 C4.02 4 2.04 4 0 4 C0 2.68 0 1.36 0 0 Z " fill="#FBFBFB" transform="translate(131,341)"/>
<path d="M0 0 C1.65 0 3.3 0 5 0 C5 1.32 5 2.64 5 4 C3.35 4 1.7 4 0 4 C0 2.68 0 1.36 0 0 Z " fill="#FCFCFC" transform="translate(131,335)"/>
<path d="M0 0 C0.33 0 0.66 0 1 0 C1 2.64 1 5.28 1 8 C0.34 8 -0.32 8 -1 8 C-1.66 7.01 -2.32 6.02 -3 5 C-2 2 -2 2 0 0 Z " fill="#FEF1CE" transform="translate(239,231)"/>
</svg>
